# xmcd
#
# Track frame offsets:
#	150
#	41094
#	65820
#	105630
#	152425
#
# Disc length: 2305 seconds
#
# Revision: 0
# Processed by: cddbd v1.5.2PL0 Copyright (c) Steve Scherf et al.
# Submitted via: audiograbber 1.83.01
#
DISCID=3c08ff05
DTITLE=Grateful Dead - 92-06-11 Knickerbocker Arena, Albany NY
DYEAR=1900
DGENRE=
TTITLE0=Space
TTITLE1=I Need A Miracle
TTITLE2=Wharf Rat
TTITLE3=Around and Around
TTITLE4=The Mighty Quinn
EXTD=
EXTT0=
EXTT1=
EXTT2=
EXTT3=
EXTT4=
PLAYORDER=
